# xmcd
#
# Track frame offsets:
#	150
#	14361
#	30883
#	46663
#	64524
#	79352
#	92283
#	108496
#	124583
#	139291
#	152103
#	168400
#	179938
#	196065
#	211259
#	227037
#	242298
#	260930
#
# Disc length: 3700 seconds
#
# Revision: 1
# Processed by: cddbd v1.5.2PL0 Copyright (c) Steve Scherf et al.
# Submitted via: audiograbber 1.83.01
#
DISCID=ea0e7212
DTITLE=Various Artist - Promo Only Country Radio February 2017
DYEAR=2017
DGENRE=Country
TTITLE0=Michael Tyler - They Can't See
TTITLE1=Brandon Maddox - Dixie Chaser
TTITLE2=Kala Jmes - Slow Train Coming
TTITLE3=Reba McEntire and Kelly Clarkson - Softly And Tenderly
TTITLE4=Shane Owens - All The Beer In Alabama
TTITLE5=Denny Strickland - Get A Grip
TTITLE6=Mark Chesnutt - Oughta Miss Me By Now
TTITLE7=Brothers Osborne - It Ain't My Fault
TTITLE8=Ellie McKay - The Girl With A Fishing Rod
TTITLE9=Mo Pitney - Everywhere
TTITLE10=CJ Solar - Just Another Day In The Country
TTITLE11=Southern Halo - Living Like That
TTITLE12=Hudson Moore - Might As Well
TTITLE13=Jason Aldean - Any Ol' Barstool
TTITLE14=Fabian - Addictive Love
TTITLE15=Luke Bryan - Fast
TTITLE16=Serene and Pearl - Bread Of Life
TTITLE17=Brett Young - In Case You Didn't Know
EXTD=
EXTT0=
EXTT1=
EXTT2=
EXTT3=
EXTT4=
EXTT5=
EXTT6=
EXTT7=
EXTT8=
EXTT9=
EXTT10=
EXTT11=
EXTT12=
EXTT13=
EXTT14=
EXTT15=
EXTT16=
EXTT17=
PLAYORDER=
